<svg width="317" height="243" viewBox="0 0 317 243" fill="none" xmlns="http://www.w3.org/2000/svg">
<g filter="url(#filter0_dd_1_352)">
<rect x="8" y="6" width="301" height="226.71" rx="16" fill="white"/>
<path d="M178.984 68.1801C170.614 68.1801 162.094 67.8401 154.124 65.6201C146.304 63.4501 139.124 59.2401 132.724 54.3701C128.534 51.2001 124.724 48.6701 119.284 49.0501C113.962 49.3381 108.872 51.3254 104.764 54.7201C97.8437 60.7801 98.8837 72.0101 101.654 79.8701C105.814 91.7401 118.474 100.01 129.234 105.36C141.664 111.57 155.324 115.18 169.014 117.25C181.014 119.08 196.434 120.4 206.834 112.57C216.384 105.36 219.004 88.9201 216.664 77.8201C216.096 74.5409 214.35 71.5821 211.754 69.5001C205.044 64.5901 195.034 67.8701 187.494 68.0301C184.694 68.0901 181.844 68.1601 178.984 68.1801Z" fill="#F2F2F2"/>
<path d="M158.904 136.71C179.178 136.71 195.614 135.685 195.614 134.42C195.614 133.155 179.178 132.13 158.904 132.13C138.629 132.13 122.194 133.155 122.194 134.42C122.194 135.685 138.629 136.71 158.904 136.71Z" fill="#F2F2F2"/>
<path d="M107.104 46.13L120.104 45.03C121.725 44.8881 123.345 45.3073 124.694 46.2175C126.043 47.1277 127.039 48.4736 127.514 50.03L139.974 91.73L137.534 96.1C136.907 97.226 136.598 98.5009 136.639 99.7889C136.68 101.077 137.069 102.33 137.766 103.414C138.463 104.497 139.441 105.372 140.596 105.944C141.751 106.515 143.039 106.763 144.324 106.66L194.224 102.42" stroke="#BABABA" stroke-linecap="round" stroke-linejoin="round"/>
<path d="M129.374 56.36L187.374 51.44C187.945 51.391 188.52 51.4713 189.056 51.6749C189.592 51.8786 190.076 52.2003 190.471 52.6162C190.865 53.0321 191.161 53.5316 191.337 54.0775C191.512 54.6235 191.562 55.2019 191.484 55.77L187.554 84.14C187.434 84.9911 187.032 85.7774 186.412 86.3724C185.792 86.9673 184.989 87.3363 184.134 87.42L139.974 91.73L129.374 56.36Z" fill="white" stroke="#BABABA" stroke-linecap="round" stroke-linejoin="round"/>
<path d="M149.874 116.22C152.475 116.22 154.584 114.111 154.584 111.51C154.584 108.909 152.475 106.8 149.874 106.8C147.273 106.8 145.164 108.909 145.164 111.51C145.164 114.111 147.273 116.22 149.874 116.22Z" fill="white" stroke="#BABABA" stroke-linecap="round" stroke-linejoin="round"/>
<path d="M182.674 113.44C185.275 113.44 187.384 111.331 187.384 108.73C187.384 106.129 185.275 104.02 182.674 104.02C180.072 104.02 177.964 106.129 177.964 108.73C177.964 111.331 180.072 113.44 182.674 113.44Z" fill="white" stroke="#BABABA" stroke-linecap="round" stroke-linejoin="round"/>
<path d="M117.398 43.9041L105.142 44.944C104.08 45.0341 103.292 45.9682 103.382 47.0303C103.473 48.0924 104.407 48.8803 105.469 48.7902L117.725 47.7502C118.787 47.6601 119.575 46.7261 119.485 45.664C119.394 44.6019 118.46 43.8139 117.398 43.9041Z" fill="#D2D2D2"/>
<path d="M153.794 78.27C154.033 76.4449 154.889 74.7565 156.219 73.4847C157.55 72.2129 159.275 71.4342 161.109 71.2777C162.943 71.1213 164.776 71.5965 166.303 72.6246C167.829 73.6527 168.959 75.1718 169.504 76.93" stroke="#BABABA" stroke-linecap="round" stroke-linejoin="round"/>
<path d="M169.634 67.48C170.252 67.48 170.754 66.9785 170.754 66.36C170.754 65.7414 170.252 65.24 169.634 65.24C169.015 65.24 168.514 65.7414 168.514 66.36C168.514 66.9785 169.015 67.48 169.634 67.48Z" fill="#BABABA"/>
<path d="M151.884 68.98C152.502 68.98 153.004 68.4785 153.004 67.86C153.004 67.2414 152.502 66.74 151.884 66.74C151.265 66.74 150.764 67.2414 150.764 67.86C150.764 68.4785 151.265 68.98 151.884 68.98Z" fill="#BABABA"/>
<path d="M120.334 110.12V114.43" stroke="#BABABA" stroke-linecap="round" stroke-linejoin="round"/>
<path d="M118.184 112.27H122.484" stroke="#BABABA" stroke-linecap="round" stroke-linejoin="round"/>
<path d="M189.044 30V34.3" stroke="#BABABA" stroke-linecap="round" stroke-linejoin="round"/>
<path d="M186.894 32.1501H191.194" stroke="#BABABA" stroke-linecap="round" stroke-linejoin="round"/>
<path d="M138.134 42.8501V47.1501" stroke="#BABABA" stroke-linecap="round" stroke-linejoin="round"/>
<path d="M135.974 45H140.284" stroke="#BABABA" stroke-linecap="round" stroke-linejoin="round"/>
<path d="M199.774 58.6599C200.337 58.6599 200.794 58.2032 200.794 57.6399C200.794 57.0765 200.337 56.6199 199.774 56.6199C199.21 56.6199 198.754 57.0765 198.754 57.6399C198.754 58.2032 199.21 58.6599 199.774 58.6599Z" fill="white" stroke="#BABABA" stroke-linecap="round" stroke-linejoin="round"/>
<path d="M161.654 49.49C162.195 49.49 162.634 49.0513 162.634 48.51C162.634 47.9688 162.195 47.53 161.654 47.53C161.113 47.53 160.674 47.9688 160.674 48.51C160.674 49.0513 161.113 49.49 161.654 49.49Z" fill="#CFCFCF"/>
<path d="M168.234 120.61C168.775 120.61 169.214 120.171 169.214 119.63C169.214 119.089 168.775 118.65 168.234 118.65C167.692 118.65 167.254 119.089 167.254 119.63C167.254 120.171 167.692 120.61 168.234 120.61Z" fill="#CFCFCF"/>
<path d="M90.4091 167.074H92.0227L95.25 172.506H95.3864L98.6136 167.074H100.227L96.0227 173.915V178.71H94.6136V173.915L90.4091 167.074ZM104.179 178.892C103.391 178.892 102.7 178.704 102.105 178.329C101.514 177.954 101.052 177.43 100.719 176.756C100.389 176.081 100.224 175.293 100.224 174.392C100.224 173.483 100.389 172.689 100.719 172.011C101.052 171.333 101.514 170.807 102.105 170.432C102.7 170.057 103.391 169.869 104.179 169.869C104.967 169.869 105.656 170.057 106.247 170.432C106.842 170.807 107.304 171.333 107.634 172.011C107.967 172.689 108.134 173.483 108.134 174.392C108.134 175.293 107.967 176.081 107.634 176.756C107.304 177.43 106.842 177.954 106.247 178.329C105.656 178.704 104.967 178.892 104.179 178.892ZM104.179 177.687C104.777 177.687 105.27 177.534 105.656 177.227C106.043 176.92 106.329 176.517 106.514 176.017C106.7 175.517 106.793 174.975 106.793 174.392C106.793 173.809 106.7 173.265 106.514 172.761C106.329 172.257 106.043 171.85 105.656 171.54C105.27 171.229 104.777 171.074 104.179 171.074C103.58 171.074 103.088 171.229 102.702 171.54C102.315 171.85 102.029 172.257 101.844 172.761C101.658 173.265 101.565 173.809 101.565 174.392C101.565 174.975 101.658 175.517 101.844 176.017C102.029 176.517 102.315 176.92 102.702 177.227C103.088 177.534 103.58 177.687 104.179 177.687ZM115.68 175.142V169.983H117.021V178.71H115.68V177.233H115.589C115.385 177.676 115.067 178.053 114.635 178.363C114.203 178.67 113.658 178.824 112.999 178.824C112.453 178.824 111.968 178.704 111.544 178.466C111.12 178.223 110.786 177.86 110.544 177.375C110.302 176.886 110.18 176.271 110.18 175.528V169.983H111.521V175.437C111.521 176.074 111.699 176.581 112.055 176.96C112.415 177.339 112.874 177.528 113.43 177.528C113.764 177.528 114.103 177.443 114.447 177.273C114.796 177.102 115.088 176.841 115.322 176.488C115.561 176.136 115.68 175.687 115.68 175.142ZM127.523 178.892C126.705 178.892 126 178.699 125.409 178.312C124.818 177.926 124.364 177.394 124.045 176.716C123.727 176.038 123.568 175.263 123.568 174.392C123.568 173.506 123.731 172.723 124.057 172.045C124.386 171.363 124.845 170.831 125.432 170.449C126.023 170.062 126.712 169.869 127.5 169.869C128.114 169.869 128.667 169.983 129.159 170.21C129.652 170.437 130.055 170.756 130.369 171.165C130.684 171.574 130.879 172.051 130.955 172.596H129.614C129.511 172.199 129.284 171.846 128.932 171.54C128.583 171.229 128.114 171.074 127.523 171.074C127 171.074 126.542 171.21 126.148 171.483C125.758 171.752 125.453 172.132 125.233 172.625C125.017 173.113 124.909 173.687 124.909 174.346C124.909 175.021 125.015 175.608 125.227 176.108C125.443 176.608 125.746 176.996 126.136 177.273C126.53 177.549 126.992 177.687 127.523 177.687C127.871 177.687 128.188 177.627 128.472 177.506C128.756 177.384 128.996 177.21 129.193 176.983C129.39 176.756 129.53 176.483 129.614 176.165H130.955C130.879 176.68 130.691 177.144 130.392 177.557C130.097 177.966 129.705 178.292 129.216 178.534C128.731 178.773 128.167 178.892 127.523 178.892ZM135.483 178.915C134.93 178.915 134.428 178.81 133.977 178.602C133.527 178.39 133.169 178.085 132.903 177.687C132.638 177.286 132.506 176.801 132.506 176.233C132.506 175.733 132.604 175.328 132.801 175.017C132.998 174.703 133.261 174.456 133.591 174.278C133.92 174.1 134.284 173.968 134.682 173.881C135.083 173.79 135.487 173.718 135.892 173.665C136.422 173.596 136.852 173.545 137.182 173.511C137.515 173.473 137.758 173.411 137.909 173.324C138.064 173.237 138.142 173.085 138.142 172.869V172.824C138.142 172.263 137.989 171.828 137.682 171.517C137.379 171.206 136.919 171.051 136.301 171.051C135.661 171.051 135.159 171.191 134.795 171.471C134.432 171.752 134.176 172.051 134.028 172.369L132.756 171.915C132.983 171.384 133.286 170.971 133.665 170.676C134.047 170.377 134.464 170.168 134.915 170.051C135.369 169.93 135.816 169.869 136.256 169.869C136.536 169.869 136.858 169.903 137.222 169.971C137.589 170.036 137.943 170.17 138.284 170.375C138.629 170.579 138.915 170.888 139.142 171.301C139.369 171.714 139.483 172.267 139.483 172.96V178.71H138.142V177.528H138.074C137.983 177.718 137.831 177.92 137.619 178.136C137.407 178.352 137.125 178.536 136.773 178.687C136.42 178.839 135.991 178.915 135.483 178.915ZM135.688 177.71C136.218 177.71 136.665 177.606 137.028 177.398C137.396 177.189 137.672 176.92 137.858 176.591C138.047 176.261 138.142 175.915 138.142 175.551V174.324C138.085 174.392 137.96 174.454 137.767 174.511C137.578 174.564 137.358 174.612 137.108 174.653C136.862 174.691 136.621 174.725 136.386 174.756C136.155 174.782 135.968 174.805 135.824 174.824C135.475 174.869 135.15 174.943 134.847 175.045C134.547 175.144 134.305 175.293 134.119 175.494C133.938 175.691 133.847 175.96 133.847 176.301C133.847 176.767 134.019 177.119 134.364 177.358C134.712 177.593 135.153 177.71 135.688 177.71ZM141.93 178.71V169.983H143.226V171.301H143.317C143.476 170.869 143.764 170.519 144.18 170.25C144.597 169.981 145.067 169.846 145.589 169.846C145.688 169.846 145.811 169.848 145.959 169.852C146.107 169.856 146.218 169.862 146.294 169.869V171.233C146.249 171.221 146.144 171.204 145.982 171.182C145.822 171.155 145.654 171.142 145.476 171.142C145.052 171.142 144.673 171.231 144.339 171.409C144.01 171.583 143.749 171.826 143.555 172.136C143.366 172.443 143.271 172.793 143.271 173.187V178.71H141.93ZM152.226 169.983V171.119H147.703V169.983H152.226ZM149.021 167.892H150.362V176.21C150.362 176.589 150.417 176.873 150.527 177.062C150.641 177.248 150.785 177.373 150.959 177.437C151.137 177.498 151.324 177.528 151.521 177.528C151.669 177.528 151.79 177.521 151.885 177.506C151.98 177.487 152.055 177.471 152.112 177.46L152.385 178.665C152.294 178.699 152.167 178.733 152.004 178.767C151.841 178.805 151.635 178.824 151.385 178.824C151.006 178.824 150.635 178.742 150.271 178.579C149.911 178.417 149.612 178.168 149.374 177.835C149.139 177.502 149.021 177.081 149.021 176.574V167.892ZM158.743 178.71V169.983H160.084V178.71H158.743ZM159.425 168.528C159.163 168.528 158.938 168.439 158.749 168.261C158.563 168.083 158.47 167.869 158.47 167.619C158.47 167.369 158.563 167.155 158.749 166.977C158.938 166.799 159.163 166.71 159.425 166.71C159.686 166.71 159.91 166.799 160.095 166.977C160.285 167.155 160.379 167.369 160.379 167.619C160.379 167.869 160.285 168.083 160.095 168.261C159.91 168.439 159.686 168.528 159.425 168.528ZM168.722 171.937L167.517 172.278C167.441 172.078 167.33 171.882 167.182 171.693C167.038 171.5 166.841 171.341 166.591 171.216C166.341 171.091 166.021 171.028 165.631 171.028C165.097 171.028 164.652 171.151 164.295 171.398C163.943 171.64 163.767 171.949 163.767 172.324C163.767 172.657 163.888 172.92 164.131 173.113C164.373 173.307 164.752 173.468 165.267 173.596L166.562 173.915C167.343 174.104 167.924 174.394 168.307 174.784C168.689 175.17 168.881 175.668 168.881 176.278C168.881 176.778 168.737 177.225 168.449 177.619C168.165 178.013 167.767 178.324 167.256 178.551C166.744 178.778 166.15 178.892 165.472 178.892C164.581 178.892 163.845 178.699 163.261 178.312C162.678 177.926 162.309 177.362 162.153 176.619L163.426 176.301C163.547 176.771 163.777 177.123 164.114 177.358C164.455 177.593 164.9 177.71 165.449 177.71C166.074 177.71 166.57 177.578 166.938 177.312C167.309 177.043 167.494 176.721 167.494 176.346C167.494 176.043 167.388 175.79 167.176 175.585C166.964 175.377 166.638 175.221 166.199 175.119L164.744 174.778C163.945 174.589 163.358 174.295 162.983 173.898C162.612 173.496 162.426 172.994 162.426 172.392C162.426 171.899 162.564 171.464 162.841 171.085C163.121 170.706 163.502 170.409 163.983 170.193C164.468 169.977 165.017 169.869 165.631 169.869C166.494 169.869 167.172 170.059 167.665 170.437C168.161 170.816 168.513 171.316 168.722 171.937ZM179.058 178.892C178.217 178.892 177.492 178.706 176.882 178.335C176.276 177.96 175.808 177.437 175.479 176.767C175.153 176.093 174.99 175.309 174.99 174.415C174.99 173.521 175.153 172.733 175.479 172.051C175.808 171.365 176.267 170.831 176.854 170.449C177.445 170.062 178.134 169.869 178.922 169.869C179.376 169.869 179.825 169.945 180.268 170.096C180.712 170.248 181.115 170.494 181.479 170.835C181.842 171.172 182.132 171.619 182.348 172.176C182.564 172.733 182.672 173.418 182.672 174.233V174.801H175.945V173.642H181.308C181.308 173.149 181.21 172.71 181.013 172.324C180.82 171.937 180.543 171.632 180.183 171.409C179.827 171.185 179.407 171.074 178.922 171.074C178.388 171.074 177.926 171.206 177.536 171.471C177.149 171.733 176.852 172.074 176.643 172.494C176.435 172.915 176.331 173.365 176.331 173.846V174.619C176.331 175.278 176.445 175.837 176.672 176.295C176.903 176.75 177.223 177.096 177.632 177.335C178.041 177.57 178.517 177.687 179.058 177.687C179.411 177.687 179.729 177.638 180.013 177.54C180.301 177.437 180.549 177.286 180.757 177.085C180.965 176.881 181.126 176.627 181.24 176.324L182.536 176.687C182.399 177.127 182.17 177.513 181.848 177.846C181.526 178.176 181.128 178.434 180.655 178.619C180.181 178.801 179.649 178.892 179.058 178.892ZM184.712 178.71V169.983H186.007V171.346H186.121C186.303 170.881 186.596 170.519 187.001 170.261C187.407 170 187.893 169.869 188.462 169.869C189.037 169.869 189.517 170 189.899 170.261C190.286 170.519 190.587 170.881 190.803 171.346H190.893C191.117 170.896 191.452 170.538 191.899 170.273C192.346 170.004 192.882 169.869 193.507 169.869C194.287 169.869 194.926 170.113 195.422 170.602C195.918 171.087 196.166 171.843 196.166 172.869V178.71H194.825V172.869C194.825 172.225 194.649 171.765 194.297 171.488C193.945 171.212 193.53 171.074 193.053 171.074C192.439 171.074 191.964 171.259 191.626 171.631C191.289 171.998 191.121 172.464 191.121 173.028V178.71H189.757V172.733C189.757 172.237 189.596 171.837 189.274 171.534C188.952 171.227 188.537 171.074 188.03 171.074C187.681 171.074 187.356 171.167 187.053 171.352C186.753 171.538 186.511 171.795 186.325 172.125C186.143 172.451 186.053 172.828 186.053 173.256V178.71H184.712ZM198.618 181.983V169.983H199.913V171.369H200.072C200.171 171.218 200.307 171.024 200.482 170.79C200.66 170.551 200.913 170.339 201.243 170.153C201.576 169.964 202.027 169.869 202.595 169.869C203.33 169.869 203.978 170.053 204.538 170.42C205.099 170.788 205.536 171.309 205.851 171.983C206.165 172.657 206.322 173.453 206.322 174.369C206.322 175.293 206.165 176.095 205.851 176.773C205.536 177.447 205.101 177.97 204.544 178.341C203.987 178.708 203.345 178.892 202.618 178.892C202.057 178.892 201.608 178.799 201.271 178.613C200.934 178.424 200.675 178.21 200.493 177.971C200.311 177.729 200.171 177.528 200.072 177.369H199.959V181.983H198.618ZM199.936 174.346C199.936 175.006 200.033 175.587 200.226 176.091C200.419 176.591 200.701 176.983 201.072 177.267C201.444 177.547 201.898 177.687 202.436 177.687C202.997 177.687 203.464 177.54 203.839 177.244C204.218 176.945 204.502 176.543 204.692 176.04C204.885 175.532 204.982 174.968 204.982 174.346C204.982 173.733 204.887 173.18 204.697 172.687C204.512 172.191 204.23 171.799 203.851 171.511C203.476 171.22 203.004 171.074 202.436 171.074C201.891 171.074 201.432 171.212 201.061 171.488C200.69 171.761 200.41 172.144 200.22 172.636C200.031 173.125 199.936 173.695 199.936 174.346ZM212.163 169.983V171.119H207.641V169.983H212.163ZM208.959 167.892H210.3V176.21C210.3 176.589 210.355 176.873 210.464 177.062C210.578 177.248 210.722 177.373 210.896 177.437C211.074 177.498 211.262 177.528 211.459 177.528C211.607 177.528 211.728 177.521 211.822 177.506C211.917 177.487 211.993 177.471 212.05 177.46L212.322 178.665C212.232 178.699 212.105 178.733 211.942 178.767C211.779 178.805 211.572 178.824 211.322 178.824C210.944 178.824 210.572 178.742 210.209 178.579C209.849 178.417 209.55 178.168 209.311 177.835C209.076 177.502 208.959 177.081 208.959 176.574V167.892ZM215.044 181.983C214.817 181.983 214.614 181.964 214.436 181.926C214.258 181.892 214.135 181.858 214.067 181.824L214.408 180.642C214.733 180.725 215.021 180.756 215.271 180.733C215.521 180.71 215.743 180.598 215.936 180.398C216.133 180.201 216.313 179.881 216.476 179.437L216.726 178.756L213.499 169.983H214.953L217.362 176.937H217.453L219.862 169.983H221.317L217.612 179.983C217.446 180.434 217.239 180.807 216.993 181.102C216.747 181.401 216.461 181.623 216.135 181.767C215.813 181.911 215.449 181.983 215.044 181.983ZM224.859 167.074L224.746 175.437H223.428L223.314 167.074H224.859ZM224.087 178.801C223.806 178.801 223.566 178.701 223.365 178.5C223.164 178.299 223.064 178.059 223.064 177.778C223.064 177.498 223.164 177.257 223.365 177.057C223.566 176.856 223.806 176.756 224.087 176.756C224.367 176.756 224.607 176.856 224.808 177.057C225.009 177.257 225.109 177.498 225.109 177.778C225.109 177.964 225.062 178.134 224.967 178.29C224.876 178.445 224.753 178.57 224.598 178.665C224.446 178.756 224.276 178.801 224.087 178.801Z" fill="#868E96"/>
</g>
<defs>
<filter id="filter0_dd_1_352" x="0" y="0" width="317" height="242.71" filterUnits="userSpaceOnUse" color-interpolation-filters="sRGB">
<feFlood flood-opacity="0" result="BackgroundImageFix"/>
<feColorMatrix in="SourceAlpha" type="matrix" values="0 0 0 0 0 0 0 0 0 0 0 0 0 0 0 0 0 0 127 0" result="hardAlpha"/>
<feOffset dy="2"/>
<feGaussianBlur stdDeviation="4"/>
<feComposite in2="hardAlpha" operator="out"/>
<feColorMatrix type="matrix" values="0 0 0 0 0.129412 0 0 0 0 0.145098 0 0 0 0 0.160784 0 0 0 0.08 0"/>
<feBlend mode="normal" in2="BackgroundImageFix" result="effect1_dropShadow_1_352"/>
<feColorMatrix in="SourceAlpha" type="matrix" values="0 0 0 0 0 0 0 0 0 0 0 0 0 0 0 0 0 0 127 0" result="hardAlpha"/>
<feOffset dy="1"/>
<feGaussianBlur stdDeviation="1"/>
<feComposite in2="hardAlpha" operator="out"/>
<feColorMatrix type="matrix" values="0 0 0 0 0.129412 0 0 0 0 0.145098 0 0 0 0 0.160784 0 0 0 0.1 0"/>
<feBlend mode="normal" in2="effect1_dropShadow_1_352" result="effect2_dropShadow_1_352"/>
<feBlend mode="normal" in="SourceGraphic" in2="effect2_dropShadow_1_352" result="shape"/>
</filter>
</defs>
</svg>
