<svg width="20" height="20" viewBox="0 0 20 20" fill="none" xmlns="http://www.w3.org/2000/svg">
<path d="M2 1.66062C1.53976 1.66062 1.16667 2.03372 1.16667 2.49396C1.16667 2.95419 1.53976 3.32729 2 3.32729V1.66062ZM3.91045 2.49396L4.7148 2.27611C4.61642 1.91286 4.28679 1.66062 3.91045 1.66062V2.49396ZM7.01493 13.9566L6.21057 14.1745C6.31913 14.5753 6.70623 14.8351 7.11829 14.7835L7.01493 13.9566ZM16.5672 12.7626L16.6705 13.5895C17.0244 13.5453 17.311 13.2807 17.3832 12.9315L16.5672 12.7626ZM18 5.83724L18.8161 6.00608C18.8668 5.76065 18.8045 5.5054 18.6462 5.31106C18.4879 5.11671 18.2506 5.00391 18 5.00391V5.83724ZM4.81592 5.83724L4.01156 6.05509V6.05509L4.81592 5.83724ZM2 3.32729H3.91045V1.66062H2V3.32729ZM7.11829 14.7835L16.6705 13.5895L16.4638 11.9357L6.91156 13.1298L7.11829 14.7835ZM17.3832 12.9315L18.8161 6.00608L17.184 5.6684L15.7511 12.5938L17.3832 12.9315ZM3.10609 2.7118L4.01156 6.05509L5.62028 5.6194L4.7148 2.27611L3.10609 2.7118ZM4.01156 6.05509L6.21057 14.1745L7.81928 13.7388L5.62028 5.6194L4.01156 6.05509ZM18 5.00391H4.81592V6.67058H18V5.00391ZM9.16667 17.0834C9.16667 17.3135 8.98012 17.5 8.75 17.5V19.1667C9.9006 19.1667 10.8333 18.2339 10.8333 17.0834H9.16667ZM8.75 17.5C8.51988 17.5 8.33333 17.3135 8.33333 17.0834H6.66667C6.66667 18.2339 7.59941 19.1667 8.75 19.1667V17.5ZM8.33333 17.0834C8.33333 16.8532 8.51988 16.6667 8.75 16.6667V15C7.59941 15 6.66667 15.9328 6.66667 17.0834H8.33333ZM8.75 16.6667C8.98012 16.6667 9.16667 16.8532 9.16667 17.0834H10.8333C10.8333 15.9328 9.9006 15 8.75 15V16.6667ZM15.8333 17.0834C15.8333 17.3135 15.6468 17.5 15.4167 17.5V19.1667C16.5673 19.1667 17.5 18.2339 17.5 17.0834H15.8333ZM15.4167 17.5C15.1866 17.5 15 17.3135 15 17.0834H13.3333C13.3333 18.2339 14.2661 19.1667 15.4167 19.1667V17.5ZM15 17.0834C15 16.8532 15.1866 16.6667 15.4167 16.6667V15C14.2661 15 13.3333 15.9328 13.3333 17.0834H15ZM15.4167 16.6667C15.6468 16.6667 15.8333 16.8532 15.8333 17.0834H17.5C17.5 15.9328 16.5673 15 15.4167 15V16.6667Z" fill="white"/>
</svg>
